<svg xmlns="http://www.w3.org/2000/svg" viewBox="0 0 612 559.36"><defs><style>.a{fill:#605f5f;}.b{fill:#231f20;}</style></defs><title>mark</title><path d="M1,393.68V559.36H613V372.7S599.85,360,588.5,360c0,0-41.24-14.91-49-15.46l-8.37-2.76S515,328,483.91,321.89c0,0-12.64-5.59-25.1-3.31l-12.59,2.75-258.35,3.12s-10.56-.91-18.33,1.85c0,0-14.94-3.87-25.1,2.76l-47.81,16s-33.47,0-42.43,12.7c0,0-13.75-2.76-20.92,6.07A225.77,225.77,0,0,0,1,393.68Z" transform="translate(-1)"/><path class="a" d="M416.73,381s1.33,10.28-12.46,34.06c-11.35,19.57-32.95,48.28-74,87.93,0,0-47.81-40.5-65.74-44.27L416.73,381" transform="translate(-1)"/><path class="b" d="M126.51,242.92S88.86,151.24,158.78,92.7,357.25,21.52,418.16,54C445.06,68.41,457,78.35,457,78.35v4.42l20.92,24.3,3.59.55s56.58,58.91,13.15,135.3l-2.39,26.32s-15.14,22.09-26.3,22.27a60.54,60.54,0,0,1-20.32-3.31l-6.57-88.36L445.66,180l25.1-5,6,.37,11.16,10.31s.8-28-20.72-52.65l3.62-8.84-18.9-20.56S289.87-1,154,142.41c0,0-20.32,41.79-18.73,62l2-3.68,7.17-5.52,3.59-.74,12-.74,17.93,38.11L183,304.41h-7.9s-16.73,10.86-24.7-5.34H144a8.58,8.58,0,0,1-2-8.1s-10-4.79-6.77-11a15.49,15.49,0,0,1-2.79-16.57l-4.38-2.58A54.42,54.42,0,0,1,126.51,242.92Z" transform="translate(-1)"/><path class="a" d="M177.91,231.87s-9-21.54-17.93-38.11-6-51.36-6-51.36,16.14-71.24,78.29-117.08S338.68,9.87,338.68,9.87s37.05,9.94,68.73,46.94c0,0,46,23.19,56.78,82.84,0,0,7.17,23.75,6.57,35.34l-25.1,5-6.57,19.88,6.57,88.36L466,291.52s-.6,14.91-17.33,13.25c0,0,3,47.49-74.71,127.57,0,0,6.57,27.06-58.57,34.24a138.89,138.89,0,0,1-45.42-5.52c-23.91-7.18-19.72-40.87-19.72-40.87s-38.06-34.68-58.57-85C176.94,299,177.77,246.37,177.91,231.87Z" transform="translate(-1)"/></svg>